<svg xmlns="http://www.w3.org/2000/svg" xmlns:xlink="http://www.w3.org/1999/xlink" id="Capa_1" x="0" y="0" version="1.1" viewBox="0 0 446 446" xml:space="preserve" style="enable-background:new 0 0 446 446"><path style="fill:#fff" d="M11.6,86.9c-4.8-4.8-4.8-12,0-16.8l0,0l48-48c4.8-4.8,12-4.8,16.8,0l0,0l32,32l-64.8,64.8L11.6,86.9z"/><polygon style="fill:#ffc525" points="108.4 54.1 75.6 86.1 43.6 118.9 158 233.3 190.8 201.3 223.6 168.5"/><path style="fill:#fff" d="M198.8,269.3c-3.2,0-5.6-1.6-8-3.2l-32-32l64.8-64.8l32,32c4.8,4.8,4.8,12,0,16.8l-48,48	C205.2,267.7,202,269.3,198.8,269.3z"/><path style="fill:#d2f1ff" d="M43.6,82.9L21.2,60.5l-9.6,9.6c-4.8,4.8-4.8,12,0,16.8l0,0l32,32l64.8-64.8L90.8,36.5L43.6,82.9z"/><polygon style="fill:#f2a216" points="190.8 165.3 158 198.1 61.2 100.5 43.6 118.9 158 233.3 190.8 201.3 223.6 168.5 205.2 150.9"/><path style="fill:#d2f1ff" d="M246,191.7l-39.2,38.4c-4.8,4.8-12,4.8-16.8,0l0,0l-13.6-14.4l-17.6,17.6l32,32	c4.8,4.8,12,4.8,16.8,0l0,0l48-48c4.8-4.8,4.8-12,0-16.8L246,191.7z"/><rect style="fill:#6ebde8" width="44" height="158.398" x="265.015" y="218.286" transform="matrix(-0.7071 0.7071 -0.7071 -0.7071 700.3191 304.8889)"/><rect style="fill:#fff" width="44.8" height="51.2" x="339.451" y="345.699" transform="matrix(-0.7071 0.7071 -0.7071 -0.7071 880.2648 377.9794)"/><polygon style="fill:#428ec1" points="342.8 354.1 230.8 242.1 246.8 226.1 246.8 226.1 215.6 257.3 327.6 369.3 358.8 338.1 358.8 338.1"/><rect style="fill:#d2f1ff" width="21.6" height="51.2" x="342.72" y="353.919" transform="matrix(-0.7071 0.7071 -0.7071 -0.7071 871.8559 397.9033)"/><path style="fill:#6ebde8" d="M438,86.1v19.2c-0.8,41.6-34.4,75.2-76.8,75.2c-11.2,0-23.2-3.2-32.8-8l9.6,4.8l-69.6,70.4	l-21.6-21.6l8-8c4.8-4.8,4.8-12,0-16.8l0,0l-16-17.6l52-52l4.8,8c-19.2-36.8-4.8-82.4,32-102.4c10.4-5.6,22.4-8.8,34.4-8.8h20	l-39.2,37.6l4,53.6l53.6,4L438,86.1z M237.2,278.9l-21.6-21.6l-8,8c-4.8,4.8-12,4.8-16.8,0l0,0L174,248.5l-44.8,44.8l9.6,4.8	c-34.4-17.6-76-4-92.8,29.6c-4.8,8-7.2,15.2-8,23.2l-3.2,23.2L62,346.9l53.6,4l4,53.6l-27.2,27.2l23.2-3.2	c34.4-4,60.8-34.4,60.8-68.8c0-8.8-1.6-17.6-4.8-26.4l3.2,8L237.2,278.9z"/><g><path style="fill:#428ec1" d="M286,104.5l2.4,4C287.6,106.9,286.8,105.3,286,104.5L286,104.5L286,104.5z"/><path style="fill:#428ec1" d="M427.6,96.5c-10.4,31.2-39.2,52.8-72,52.8c-8,0-16-0.8-24-3.2L262,215.7l-3.2-3.2 c-0.8,1.6-1.6,3.2-3.2,4.8l-8.8,8.8l21.6,21.6l69.6-69.6l-9.6-4.8c37.6,18.4,83.2,3.2,101.6-34.4c4.8-10.4,8-21.6,8-32.8V86.9 L427.6,96.5z"/><path style="fill:#428ec1" d="M237.2,278.9L218,259.7l-50.4,50.4c0.8,6.4,1.6,12,1.6,18.4c0,31.2-20.8,58.4-50.4,66.4l0.8,8.8 l-27.2,28l23.2-3.2c34.4-4,60.8-34.4,60.8-68.8c0-8.8-1.6-17.6-4.8-26.4l3.2,8L237.2,278.9z"/></g><path style="fill:#04142b" d="M438,80.5c-3.2-0.8-5.6,0-8,2.4l-32.8,32.8l-42.4-3.2l-3.2-42.4l32.8-32.8c3.2-3.2,3.2-8,0-11.2	c-0.8-0.8-2.4-1.6-4-2.4c-6.4-1.6-12-2.4-18.4-2.4c-46.4,0-84,37.6-84,84c0,8,0.8,16,3.2,24L238,172.5L82,15.7c-8-7.2-20-7.2-28,0	l-48,48c-8,8-8,20,0,28l0,0l156,156.8l-36,36c-6.4-1.6-12.8-2.4-19.2-2.4c-42.4,0-76.8,35.2-76.8,77.6c0,4,0,8,0.8,12	s4.8,7.2,8.8,6.4c1.6,0,3.2-0.8,4-2.4l21.6-21.6l42.4,3.2l3.2,42.4l-21.6,21.6c-3.2,3.2-3.2,8,0,11.2c1.6,1.6,3.2,2.4,4.8,2.4	c4,0.8,8,0.8,12.8,0.8l0,0c42.4,0,76.8-35.2,76.8-77.6l0,0c0-4.8-0.8-10.4-1.6-15.2l54.4-54.4l120.8,120.8c3.2,3.2,8,3.2,11.2,0	l31.2-31.2c3.2-3.2,3.2-8,0-11.2l-120-119.2l61.6-61.6c6.4,1.6,13.6,2.4,20.8,2.4l0,0c46.4,0,84-37.6,84-84c0-6.4-0.8-12.8-2.4-18.4	C442.8,83.7,441.2,81.3,438,80.5z M250,206.1c1.6,1.6,1.6,4,0,5.6l-48,48c-0.8,0.8-1.6,0.8-2.4,0.8c-0.8,0-1.6-0.8-2.4-0.8	l-26.4-26.4l53.6-53.6L250,206.1z M212.4,168.5l-21.6,21.6L87.6,86.1l21.6-21.6L212.4,168.5z M17.2,80.5c-1.6-1.6-1.6-4,0-5.6l0,0	l48-48c1.6-1.6,4-1.6,5.6,0l0,0l26.4,26.4l-53.6,53.6L17.2,80.5z M158,222.1L54.8,118.9l20.8-20.8l103.2,103.2L158,222.1z M150,402.9c-9.6,9.6-22.4,16-35.2,17.6l10.4-10.4c1.6-1.6,2.4-4,2.4-6.4l-4-53.6c0-4-3.2-7.2-7.2-7.2l-53.6-4l0,0	c-2.4,0-4,0.8-5.6,2.4L46,351.7c4-33.6,35.2-57.6,68.8-52.8s57.6,35.2,52.8,68.8C166,380.5,159.6,393.3,150,402.9L150,402.9z M177.2,327.7c-7.2-16-19.2-28.8-35.2-36l31.2-31.2l11.2,11.2c8,8,20,8,28,0l0,0l3.2-2.4l10.4,10.4L177.2,327.7z M383.6,374.1	l-20,20l-24.8-24.8l20-20L383.6,374.1z M347.6,338.1l-20,20L226.8,257.3l20-20L347.6,338.1z M268.4,235.7L258,225.3l2.4-2.4	c8-8,8-20,0-28l0,0L250,183.7l38.4-39.2c8,15.2,20.8,27.2,36,35.2L268.4,235.7z M410,152.5c-12.8,12.8-29.6,20-48,20l0,0	c-37.6,0-68-29.6-68-67.2s29.6-68,67.2-68l0,0l-24,24c-1.6,1.6-2.4,4-2.4,6.4l4,53.6c0,4,3.2,7.2,7.2,7.2l53.6,4	c2.4,0,4.8-0.8,6.4-2.4l24-24C429.2,122.9,422.8,139.7,410,152.5z"/></svg>